<svg xmlns="http://www.w3.org/2000/svg" viewBox="0 0 512 512"><path fill="#0769ad" d="M501.7 220.4c-19.6 43.8-59.8 71.6-108.1 71.6H384c-2.1 0-4.2-.1-6.3-.2-1.3-.1-2.6-.2-3.9-.4l-.2.1c-27.1 3.9-54.1-5.6-73.8-25.4-19.8-19.8-29.3-46.8-25.4-73.9 3.9-27.1 20.3-51.1 44.6-65.3 26-15.2 58.6-17.2 86.2-5.3 27.7 11.8 48.2 36.1 56.2 64.6 8.9 31.9.3 65.3-23.4 87.3-23.4 21.8-55.3 30.7-86.6 24.2-26.1-5.4-49.2-21.2-63.3-43.2-14.1-22.1-18.6-48.6-12.3-74.8 6.3-26.2 23.1-49.2 46.1-63.1 23.2-14 51.3-18.2 77.9-11.8 26.6 6.4 49.6 23.2 63.5 46.4 5.3 8.8 9.1 18.4 11.5 28.4.8 3.6 1.4 7.2 1.8 10.9.1 1.2.2 2.4.3 3.7 0 .8.1 1.6.1 2.4 0 1.8.1 3.5.1 5.3v.1c0 .8 0 1.7-.1 2.5 0 1.2-.1 2.3-.2 3.5-.1 1.5-.2 3.1-.4 4.6-.2 1.9-.5 3.8-.8 5.7-.5 3.1-1.1 6.1-1.9 9.1-.6 2.1-1.2 4.2-1.9 6.3-.8 2.5-1.7 4.9-2.7 7.3-.9 2.1-1.9 4.1-2.9 6.2-1.2 2.3-2.5 4.6-3.9 6.8-1.2 1.9-2.5 3.7-3.8 5.5-1.5 2.1-3.1 4.1-4.8 6-1.4 1.6-2.9 3.2-4.5 4.7-1.8 1.8-3.7 3.6-5.7 5.2-1.6 1.3-3.3 2.6-5 3.8-2.1 1.5-4.2 2.9-6.4 4.2-1.8 1-3.6 2-5.4 3-2.3 1.2-4.7 2.4-7.1 3.4-1.9.8-3.8 1.5-5.8 2.2-2.5.9-5.1 1.6-7.7 2.3-1.9.5-3.9.9-5.9 1.3-2.7.5-5.4.9-8.2 1.2-1.9.2-3.7.4-5.6.5-3 .2-6 .2-9 .2h-1.2z"/></svg>