<svg xmlns="http://www.w3.org/2000/svg" viewBox="0 0 32 32"><path fill="#764abc" d="M22.4 22.1c.9-.8 1.4-1.9 1.3-3.1 0-2.8-2.3-5.1-5.1-5.1h-.2c-.3-1.9-1.9-3.3-3.9-3.3-2.2 0-3.9 1.7-4 3.9 0 .5.1 1 .3 1.4-.5.1-1 .3-1.4.5-1.7.8-2.9 2.5-2.9 4.5 0 2.8 2.3 5.1 5.1 5.1h.2c.3 1.9 1.9 3.3 3.9 3.3 2.2 0 3.9-1.7 4-3.9 0-.5-.1-1-.3-1.4.5-.1 1-.3 1.4-.5 1.7-.8 2.9-2.5 2.9-4.5 0-1.1-.4-2.1-1.1-2.9zm-7.6 6.2c-1.1 0-2-.9-2-2s.9-2 2-2 2 .9 2 2-.9 2-2 2zm7.3-6.2c-.6 0-1.1-.5-1.1-1.1s.5-1.1 1.1-1.1 1.1.5 1.1 1.1-.5 1.1-1.1 1.1z"/></svg>