<svg xmlns="http://www.w3.org/2000/svg" viewBox="0 0 32 32"><path fill="#3178c6" d="M0 16v16h32V0H0zm25.7-2.3c1.2.3 2.2.8 3.1 1.6-.3.4-.6.7-1 1-.9-.8-1.9-1.2-3-1.2s-2 .3-2.7.8c-.7.5-1 1.2-1 2 0 .5.1.9.4 1.2.3.3.7.6 1.2.8l1.7.6c1.2.4 2.3.9 3.1 1.5.9.6 1.5 1.3 1.9 2.1s.6 1.7.6 2.7c0 1.3-.3 2.4-1 3.4-.6 1-1.5 1.7-2.7 2.2-1.1.5-2.4.8-3.8.8-1.7 0-3.2-.3-4.4-1-1.2-.7-2.2-1.6-2.8-2.9l2.8-1.6c.4.8.9 1.4 1.5 1.8.6.4 1.4.6 2.2.6s1.6-.2 2.2-.7c.6-.5.9-1.1.9-1.9 0-.5-.1-.9-.4-1.3-.3-.3-.7-.6-1.2-.9-.5-.2-1.1-.5-1.8-.7-1.2-.4-2.2-.8-3-1.4-.8-.5-1.4-1.2-1.8-1.9-.4-.7-.6-1.6-.6-2.6 0-1.2.3-2.3 1-3.2.6-.9 1.5-1.6 2.6-2.1s2.3-.7 3.7-.7c1.3 0 2.5.2 3.7.7zM16 8H8v3h3v13h3V11h3V8z"/></svg>